<?xml version="1.0" encoding="iso-8859-1"?>
<!-- Generator: Adobe Illustrator 19.0.0, SVG Export Plug-In . SVG Version: 6.00 Build 0)  -->
<svg version="1.1" id="Layer_1" xmlns="http://www.w3.org/2000/svg" xmlns:xlink="http://www.w3.org/1999/xlink" x="0px" y="0px"
	 viewBox="0 0 460 460" style="enable-background:new 0 0 460 460;" xml:space="preserve">
<g>
	<g>
		<path d="M454.414,72.656c-3.522-2.848-8.161-3.948-12.589-3c-0.136,0.029-13.881,2.918-35.41,2.918
			c-43.381,0-107.466-11.078-166.409-63.852c-5.697-5.1-14.314-5.1-20.012,0C161.053,61.494,96.967,72.573,53.585,72.574
			c-21.534,0-35.272-2.889-35.374-2.911c-4.439-0.973-9.075,0.118-12.614,2.966C2.058,75.476,0,79.774,0,84.316
			C0,227.6,44.304,315.842,81.471,364.637c50.804,66.7,110.037,90.466,148.529,90.466s97.726-23.766,148.529-90.466
			C415.696,315.842,460,227.599,460,84.316C460,79.786,457.937,75.503,454.414,72.656z M352.079,188.531L217.928,322.682
			c-2.929,2.929-6.768,4.394-10.606,4.394c-3.838,0-7.678-1.464-10.606-4.394l-76.794-76.794c-5.858-5.858-5.858-15.355,0-21.213
			c5.857-5.858,15.355-5.858,21.213,0l66.188,66.187l123.545-123.544c5.857-5.857,15.355-5.858,21.213,0
			C357.938,173.176,357.938,182.673,352.079,188.531z"/>
	</g>
</g>
<g>
</g>
<g>
</g>
<g>
</g>
<g>
</g>
<g>
</g>
<g>
</g>
<g>
</g>
<g>
</g>
<g>
</g>
<g>
</g>
<g>
</g>
<g>
</g>
<g>
</g>
<g>
</g>
<g>
</g>
</svg>
